<?xml version="1.0" standalone="no"?>
<!DOCTYPE svg PUBLIC "-//W3C//DTD SVG 20010904//EN"
 "http://www.w3.org/TR/2001/REC-SVG-20010904/DTD/svg10.dtd">
<svg version="1.0" xmlns="http://www.w3.org/2000/svg"
 width="1080.000000pt" height="1280.000000pt" viewBox="0 0 1080.000000 1280.000000"
 preserveAspectRatio="xMidYMid meet">
<g transform="translate(0.000000,1280.000000) scale(0.100000,-0.100000)"
fill="#000000" stroke="none">
<path d="M8915 12792 c-5 -4 -44 -21 -85 -37 -222 -83 -412 -223 -546 -401
-88 -117 -117 -179 -111 -239 4 -40 10 -54 36 -75 29 -25 31 -31 31 -91 0 -35
9 -121 19 -192 18 -118 22 -132 63 -195 l43 -67 5 -135 5 -135 30 -3 c45 -5
52 -16 66 -95 11 -60 18 -77 46 -103 26 -24 33 -38 33 -67 0 -26 10 -52 33
-86 18 -26 39 -63 46 -82 7 -19 17 -44 22 -56 4 -12 27 -32 49 -43 23 -12 40
-26 38 -33 -3 -7 -86 -55 -185 -107 -268 -141 -277 -147 -303 -216 -36 -97
-88 -330 -115 -515 -27 -184 -32 -209 -43 -209 -4 0 -36 32 -71 71 -90 99
-222 207 -378 308 -199 129 -292 181 -328 181 -65 0 -304 -144 -416 -252 -60
-57 -69 -71 -93 -143 -14 -44 -26 -83 -26 -87 0 -4 15 -14 33 -22 18 -7 48
-32 66 -54 26 -33 45 -45 99 -63 l67 -21 70 30 c58 25 74 37 96 74 32 53 48
54 168 8 71 -28 93 -42 138 -91 31 -32 85 -110 122 -176 80 -142 149 -249 207
-324 24 -30 44 -63 44 -72 0 -19 -185 -202 -288 -285 -82 -66 -182 -117 -264
-137 -116 -27 -407 -18 -783 26 -71 8 -227 9 -545 3 -245 -4 -544 -7 -666 -5
l-221 3 -199 -100 c-109 -55 -310 -145 -445 -200 l-246 -101 -409 -257 c-326
-204 -490 -316 -809 -549 -286 -209 -448 -320 -567 -389 -92 -53 -174 -96
-184 -96 -9 0 -36 16 -59 35 -77 63 -65 63 -344 1 -260 -58 -450 -88 -796
-126 -253 -28 -326 -53 -403 -134 -79 -84 -79 -97 4 -272 l43 -92 175 -85
c163 -80 182 -86 285 -102 127 -20 169 -17 336 20 113 25 135 26 368 26 194 0
277 -5 388 -21 186 -27 237 -26 280 3 52 35 76 91 108 247 16 78 33 146 39
152 5 5 275 135 598 288 l589 277 110 7 c103 7 124 12 325 83 203 71 224 81
375 176 88 55 168 108 179 116 10 9 33 46 52 83 38 76 54 88 117 88 116 0 659
-127 693 -162 7 -7 40 -157 74 -333 33 -176 63 -328 66 -337 3 -9 42 -36 88
-59 l84 -43 113 21 c63 12 281 54 484 93 204 39 386 74 405 77 34 4 38 1 140
-114 58 -65 116 -131 127 -148 l22 -30 -53 -265 c-51 -251 -54 -278 -65 -505
-6 -132 -16 -341 -22 -463 -7 -126 -8 -227 -3 -232 5 -5 117 -67 248 -139 132
-71 243 -136 246 -143 4 -7 -6 -206 -22 -443 -22 -324 -27 -471 -23 -596 5
-166 5 -167 60 -349 l55 -183 0 -196 c-1 -108 -7 -245 -14 -304 -10 -79 -12
-192 -9 -425 5 -293 2 -355 -31 -819 -20 -276 -36 -506 -36 -511 0 -5 -14 -27
-31 -48 -61 -77 -71 -135 -44 -253 12 -48 37 -98 100 -199 47 -75 117 -197
155 -272 l69 -137 73 -33 c40 -18 110 -51 156 -72 l84 -40 120 31 c181 46 248
95 248 183 0 42 -35 179 -56 218 -7 14 -40 59 -74 100 -33 41 -69 99 -81 129
-11 30 -52 98 -91 150 -73 100 -168 254 -194 316 -23 56 6 306 57 490 41 147
79 321 79 360 0 28 118 393 175 540 23 61 62 189 85 285 l44 175 -17 170 c-30
295 -36 383 -47 640 l-11 250 131 615 c178 832 202 966 265 1497 15 131 40
277 65 385 l41 173 74 70 c69 66 75 75 106 162 47 138 180 326 660 938 457
581 459 585 659 990 125 253 202 435 259 615 88 273 85 258 77 388 -11 203
-48 322 -149 474 -44 68 -87 110 -284 283 -226 198 -234 204 -312 230 -63 21
-87 35 -116 67 -48 52 -133 184 -180 278 -57 112 -60 196 -22 503 l30 239 -38
186 c-20 103 -43 201 -50 217 -13 31 -254 313 -278 327 -8 4 -108 32 -223 62
-115 30 -218 58 -229 61 -11 3 -24 2 -30 -3z"/>
<path d="M804 8840 c-81 -10 -217 -51 -289 -88 -228 -114 -404 -328 -468 -568
-64 -236 -64 -262 0 -498 65 -241 220 -434 448 -557 256 -139 571 -142 835 -9
370 186 566 596 481 1006 -94 458 -537 771 -1007 714z"/>
</g>
</svg>
