<svg id="Layer_1" enable-background="new 0 0 510.518 510.518" height="512" viewBox="0 0 510.518 510.518" width="512" xmlns="http://www.w3.org/2000/svg"><g><path d="m217.396 297.797-15.041 59.355c-5.24 15.989-17.876 28.467-33.93 33.505l12.25 49.667c-17.817 5.591-127.944-11.391-131.962 6.845 0 0-11.723 53.203-11.723 53.203-1.148 5.21 2.818 10.146 8.154 10.146h420.229c5.406 0 9.386-5.059 8.115-10.313l-13.856-57.27c-4.472-18.484-79.937 25.592-98.29 20.608l-21.471-73.776c-16.468-4.472-29.705-16.721-35.438-32.793l-13.693-50.089z" fill="#ff9c6b"/><path d="m459.633 442.936c-4.472-18.484-68.486 33.862-86.839 28.878l-32.922-82.046c-.588-.16-1.172-.329-1.752-.509-18.296-5.661-31.676-21.41-35.158-40.243l-10.738-58.076-37.489 15.067v204.511h210.638c5.406 0 9.386-5.059 8.115-10.313z" fill="#ff742b"/><g><path d="m473.489 500.206-13.856-57.27c-4.472-18.484-18.655-33.067-37.007-38.051l-82.753-15.118c-1.273-.346-2.519-.754-3.751-1.19-.476.882-1.034 1.734-1.69 2.538-1.284 1.572-31.578 13.988-81.739 13.988-40.386 0-70.574-3.147-81.687-15.342-.851.317-1.708.622-2.58.896l-84.411 17.99c-17.817 5.592-31.283 20.286-35.301 38.522l-11.724 53.203c-1.148 5.21 2.819 10.146 8.154 10.146h420.229c5.406 0 9.387-5.058 8.116-10.312z" fill="#f4fafc"/></g><path d="m459.633 442.936c-4.472-18.484-18.655-33.067-37.007-38.051l-82.753-15.118c-1.273-.346-2.519-.754-3.751-1.19-.476.882-1.034 1.734-1.69 2.538-1.267 1.55-30.764 13.64-79.695 13.972v105.432h210.638c5.406 0 9.386-5.059 8.115-10.313z" fill="#d7efff"/><path d="m155.169 180.64-15.365-.019c-20.697 0-37.475 16.778-37.475 37.475s16.778 37.475 37.475 37.475h29.161z" fill="#ff9c6b"/><path d="m355.349 180.621h14.326c22.168 0 38.946 16.778 38.946 37.475s-16.778 37.475-37.475 37.475h-27.732z" fill="#ff742b"/><path d="m358.542 122.69v82.844c0 58.754-46.241 107.968-103.282 107.968-57.041 0-103.282-55.331-103.282-109.921v-51.594z" fill="#ffb08a"/><path d="m171.005 389.761c11.112 12.195 41.03 39.839 81.416 39.839 50.161 0 80.891-36.914 82.176-38.485.657-.804 1.187-1.608 1.663-2.49-10.224-3.624-18.753-10.555-24.921-19.281-.425.415-1.027 1.04-1.412 1.512-.223.268-22.793 26.822-57.505 26.822-31.107 0-50.266-20.313-53.835-24.515-.499-.587-1.01-1.164-1.543-1.722l-1.169-1.142c-6.023 8.8-14.699 15.675-24.87 19.462z" fill="#454f55"/><path d="m102.329 426.633h-44.02c-4.587 5.967-7.922 12.937-9.596 20.537l-11.723 53.202c-1.148 5.21 2.819 10.146 8.154 10.146h57.185z" fill="#454f55"/><path d="m410.126 510.518h55.248c5.406 0 9.386-5.059 8.115-10.313l-13.856-57.27c-1.382-5.714-3.698-11.052-6.772-15.852h-42.735z" fill="#32393f"/><path d="m413.16 504.158c0-62.379 36.366-74.204 41.113-75.48-6.095-10.308-15.616-18.314-27.08-22.471-4.397 2.696-9.129 6.158-13.842 10.596-26.541 24.992-32.113 61.298-32.113 87.355 0 1.335.218 3.557.617 6.36h30.974c.219-2.802.331-5.024.331-6.36z" fill="#454f55"/><path d="m128.147 505.971c0-26.057-5.572-62.363-32.113-87.355-4.313-4.061-8.642-7.303-12.716-9.891-11.842 3.775-21.729 11.584-28.186 21.772 4.831 1.304 41.094 13.186 41.094 75.475 0 1.111.101 2.672.294 4.547h31.261c.238-1.876.366-3.436.366-4.548z" fill="#7c8287"/><path d="m375.148 120.735c0-66.68-54.055-120.735-120.735-120.735s-120.735 54.055-120.735 120.735z" fill="#00d2ff"/><path d="m254.736 120.731h120.412c0-66.572-53.881-120.556-120.412-120.731z" fill="#2798ff"/><path d="m254.736 313.494c.175.001.348.008.523.008 57.041 0 103.282-49.214 103.282-107.968v-82.844l-103.806 14.723v176.081z" fill="#ff9c6b"/><path d="m311.338 369.344c-.425.415-1.027 1.04-1.412 1.512-.218.262-21.797 25.627-55.191 26.767v31.924c48.781-1.115 78.596-36.885 79.861-38.433.657-.804 1.187-1.608 1.663-2.49-10.223-3.623-18.753-10.554-24.921-19.28z" fill="#32393f"/><path d="m142.675 120.735 9.302 58.994 160.395-44.344c8.374-2.315 6.7-14.65-1.988-14.65z" fill="#2798ff"/><path d="m254.736 151.319 110.625-30.584h-110.625z" fill="#006eff"/><path d="m238.7.976v119.759h31.425v-119.677c-5.238-.694-10.579-1.058-16.007-1.058-5.223 0-10.369.332-15.418.976z" fill="#f4fafc"/><path d="m254.736 120.725h15.39v-119.677c-5.039-.667-10.176-1.021-15.39-1.048z" fill="#d7efff"/><g><path d="m449.373 136.696h-316.684c-8.815 0-15.961-7.146-15.961-15.961s7.146-15.961 15.961-15.961h316.684c8.815 0 15.961 7.146 15.961 15.961s-7.146 15.961-15.961 15.961z" fill="#454f55"/></g><path d="m449.373 104.774h-194.637v31.922h194.637c8.815 0 15.961-7.146 15.961-15.961s-7.146-15.961-15.961-15.961z" fill="#32393f"/></g></svg>